<svg width="236" height="124" viewBox="0 0 236 124" fill="none" xmlns="http://www.w3.org/2000/svg">
<path d="M65.184 48.704L66.24 37.952H65.856L61.728 47.264L43.008 77.024H40.128L20.448 47.168L16.512 38.048H16.032L17.568 48.608V92H8.544V24.8H15.744L38.496 59.072L42.048 66.368H42.24L45.6 58.88L67.2 24.8H74.784V92H65.184V48.704ZM132.784 87.872C130.544 89.536 127.76 90.88 124.432 91.904C121.104 92.864 117.488 93.344 113.584 93.344C109.36 93.344 105.68 92.736 102.544 91.52C99.4718 90.24 96.9438 88.448 94.9598 86.144C92.9758 83.84 91.5038 81.056 90.5438 77.792C89.5838 74.528 89.1038 70.88 89.1038 66.848C89.1038 58.208 91.2158 51.616 95.4398 47.072C99.7278 42.464 105.808 40.16 113.68 40.16C116.176 40.16 118.672 40.448 121.168 41.024C123.664 41.536 125.904 42.56 127.888 44.096C129.872 45.568 131.472 47.616 132.688 50.24C133.968 52.864 134.608 56.288 134.608 60.512C134.608 61.536 134.576 62.72 134.512 64.064C134.448 65.408 134.32 66.72 134.128 68H98.1278C98.2558 73.888 99.6638 78.336 102.352 81.344C105.04 84.352 109.616 85.856 116.08 85.856C118.768 85.856 121.328 85.408 123.76 84.512C126.192 83.552 128.08 82.432 129.424 81.152L132.784 87.872ZM126.16 61.664C126.288 56.544 125.232 52.928 122.992 50.816C120.816 48.704 117.744 47.648 113.776 47.648C109.296 47.648 105.744 48.704 103.12 50.816C100.496 52.928 98.9598 56.544 98.5118 61.664H126.16ZM143.023 41.6H151.567V31.424L160.399 29.12V41.6H175.567V49.088H160.399V74.816C160.399 78.848 160.911 81.696 161.935 83.36C162.959 85.024 164.719 85.856 167.215 85.856C168.815 85.856 170.255 85.696 171.535 85.376C172.879 84.992 174.383 84.512 176.047 83.936L178.063 90.176C176.015 91.072 173.807 91.808 171.439 92.384C169.135 93.024 166.639 93.344 163.951 93.344C159.471 93.344 156.271 92.128 154.351 89.696C152.495 87.264 151.567 83.296 151.567 77.792V49.088H143.023V41.6ZM187.497 44.768C193.257 42.016 200.393 40.64 208.905 40.64C212.745 40.64 215.817 41.152 218.121 42.176C220.489 43.136 222.313 44.384 223.593 45.92C224.873 47.456 225.705 49.184 226.089 51.104C226.537 52.96 226.761 54.816 226.761 56.672C226.761 60.192 226.633 63.744 226.377 67.328C226.121 70.848 225.993 74.688 225.993 78.848C225.993 81.28 226.089 83.648 226.281 85.952C226.537 88.192 226.921 90.272 227.433 92.192H221.001L218.601 84.512H217.641C216.937 85.472 216.073 86.464 215.049 87.488C214.025 88.448 212.809 89.312 211.401 90.08C209.993 90.848 208.361 91.488 206.505 92C204.713 92.512 202.633 92.768 200.265 92.768C197.897 92.768 195.721 92.448 193.737 91.808C191.753 91.104 190.025 90.144 188.553 88.928C187.145 87.712 186.025 86.24 185.193 84.512C184.361 82.72 183.945 80.736 183.945 78.56C183.945 75.68 184.553 73.184 185.769 71.072C187.049 68.96 188.681 67.232 190.665 65.888C192.649 64.544 194.889 63.552 197.385 62.912C199.945 62.272 202.473 61.952 204.969 61.952C206.953 61.952 208.617 61.984 209.961 62.048C211.369 62.112 212.521 62.208 213.417 62.336C214.377 62.4 215.177 62.496 215.817 62.624C216.457 62.688 217.033 62.752 217.545 62.816C217.673 61.856 217.769 61.024 217.833 60.32C217.897 59.616 217.929 58.72 217.929 57.632C217.929 55.84 217.737 54.336 217.353 53.12C216.969 51.904 216.329 50.944 215.433 50.24C214.601 49.472 213.449 48.928 211.977 48.608C210.505 48.288 208.713 48.128 206.601 48.128C205.385 48.128 204.041 48.224 202.569 48.416C201.097 48.608 199.625 48.896 198.153 49.28C196.681 49.6 195.209 50.016 193.737 50.528C192.329 51.04 191.049 51.584 189.897 52.16L187.497 44.768ZM217.545 69.152C217.033 69.088 216.489 68.992 215.913 68.864C215.337 68.736 214.601 68.64 213.705 68.576C212.873 68.512 211.849 68.448 210.633 68.384C209.481 68.32 208.041 68.288 206.313 68.288C202.345 68.288 199.177 68.992 196.809 70.4C194.505 71.808 193.353 74.208 193.353 77.6C193.353 80.16 194.249 82.08 196.041 83.36C197.897 84.64 200.265 85.28 203.145 85.28C205.257 85.28 207.113 85.024 208.713 84.512C210.377 83.936 211.785 83.264 212.937 82.496C214.153 81.664 215.113 80.768 215.817 79.808C216.585 78.784 217.161 77.792 217.545 76.832V69.152Z" fill="#DDDDDD"/>
</svg>
